# xmcd
#
# Track frame offsets:
#	150
#	15190
#	27990
#	39415
#	49435
#	61380
#	72430
#	83952
#	95590
#	107952
#	120995
#	130342
#	141112
#	152975
#	164410
#	176867
#	189712
#	202157
#	214610
#	224920
#	236027
#	245965
#	256977
#	267487
#
# Disc length: 3761
#
# Revision: 2
# Processed by: cddbd v1.5.1PL0 Copyright (c) Steve Scherf et al.
# Submitted via: audiograbber 1.81.03
# Normalized: r0:DSETVAR1,TSWAP
#
DISCID=7d0eaf18
DTITLE=Various Artist - Country's Best
DYEAR=1900
DGENRE=
TTITLE0=The Kingston Trio - Tom Dooley
TTITLE1=Elvis Presley - Don't
TTITLE2=Sonny James - Young Love
TTITLE3=Hank Locklin - Please Help Me I'm Falling
TTITLE4=Tennessee Ernie Ford - Sixteen Tons
TTITLE5=Bill Hayes - Ballad Of Davy Crockett
TTITLE6=Marty Robbins - A White Sports Coat
TTITLE7=Freddie Fender - Before The Next Teardrop Falls
TTITLE8=Johnny Cash - I Walk The Line
TTITLE9=Kenny Rogers - Ruby, Don't Take Your Love To Town
TTITLE10=Frankie Laine - Rawhide
TTITLE11=Jim Reeves - He'll Have To Go
TTITLE12=The Everly Brothers - Let It Be Me
TTITLE13=Patsy Cline - Just Out Of Reach
TTITLE14=Jerry Lee Lewis - Crazy Arms
TTITLE15=Johnny Horton - North To Alaska
TTITLE16=Freddy Fender - Wasted Days And Wasted Nights
TTITLE17=Kenny Rogers - Reuben James
TTITLE18=Elvis Presley - Wear My Ring Around Your Neck
TTITLE19=Hank Locklin - Send Me The Pillow You Dream On
TTITLE20=Johnny Cash - Ballad Of A Teenage Queen
TTITLE21=Conway Twitty - Mona Lisa
TTITLE22=Wanda Jackson - It's Only Make Believe
TTITLE23=Johnny Burnette - Ballad Of One Eyed Jack
EXTD=
EXTT0=
EXTT1=
EXTT2=
EXTT3=
EXTT4=
EXTT5=
EXTT6=
EXTT7=
EXTT8=
EXTT9=
EXTT10=
EXTT11=
EXTT12=
EXTT13=
EXTT14=
EXTT15=
EXTT16=
EXTT17=
EXTT18=
EXTT19=
EXTT20=
EXTT21=
EXTT22=
EXTT23=
PLAYORDER=
